<?xml version="1.0" standalone="no"?>
<!DOCTYPE svg PUBLIC "-//W3C//DTD SVG 20010904//EN"
 "http://www.w3.org/TR/2001/REC-SVG-20010904/DTD/svg10.dtd">
<svg version="1.0" xmlns="http://www.w3.org/2000/svg"
 width="499.000000pt" height="500.000000pt" viewBox="0 0 499.000000 500.000000"
 preserveAspectRatio="xMidYMid meet">

<g transform="translate(0.000000,500.000000) scale(0.100000,-0.100000)"
fill="#000000" stroke="none">
<path d="M2273 4858 l2 -131 -65 -13 c-233 -46 -275 -53 -280 -46 -4 4 -24 64
-45 135 -21 70 -42 127 -46 127 -19 0 -469 -174 -469 -182 0 -4 22 -58 50
-119 28 -61 50 -116 50 -123 0 -9 -194 -139 -222 -149 -4 -1 -54 42 -112 96
l-106 99 -53 -47 c-129 -116 -295 -271 -296 -276 -1 -4 44 -46 99 -94 55 -49
100 -93 100 -98 0 -16 -164 -207 -178 -207 -11 0 -89 53 -201 138 l-44 33 -22
-33 c-12 -18 -64 -100 -115 -183 -51 -82 -99 -161 -107 -174 -8 -13 -11 -26
-6 -30 4 -4 64 -29 133 -56 69 -27 129 -51 133 -55 6 -6 -93 -293 -105 -306
-3 -2 -62 15 -132 38 -94 31 -129 39 -135 30 -9 -15 -85 -441 -80 -447 2 -2
60 -13 128 -24 69 -12 126 -23 128 -25 4 -4 -29 -258 -34 -265 -2 -2 -55 -3
-118 -2 l-115 2 1 -43 c0 -24 6 -137 12 -253 l12 -210 75 0 c41 0 106 3 145 5
l70 5 36 -111 c57 -176 64 -152 -57 -208 -57 -27 -107 -53 -110 -58 -7 -11
177 -388 189 -388 5 0 53 27 106 60 54 33 102 60 107 60 5 0 25 -24 44 -52 19
-29 54 -78 78 -109 23 -31 42 -61 42 -66 0 -5 -40 -40 -90 -77 -49 -37 -92
-71 -94 -75 -3 -4 66 -78 153 -165 l157 -157 78 90 c43 50 80 91 82 91 13 0
174 -135 174 -146 0 -7 -25 -56 -56 -109 -31 -53 -55 -97 -53 -98 25 -14 56
-31 119 -65 41 -22 111 -60 155 -85 54 -30 82 -41 87 -33 4 6 26 55 49 109 23
53 45 99 49 102 6 3 216 -80 229 -91 2 -2 -17 -56 -42 -121 -26 -64 -44 -120
-39 -123 4 -4 34 -13 67 -20 33 -7 123 -28 199 -46 77 -19 147 -34 156 -34 13
0 20 24 35 115 10 63 21 119 25 125 6 10 274 0 285 -12 4 -3 11 -63 16 -134 5
-70 11 -129 12 -130 1 -1 31 2 67 7 306 39 389 50 419 55 l33 5 -7 47 c-4 26
-15 83 -25 127 -10 44 -17 81 -16 83 5 5 324 112 335 112 5 0 29 -58 53 -130
23 -71 47 -130 53 -130 9 0 433 235 444 246 4 4 -24 47 -109 166 -33 47 -33
48 -14 69 24 27 230 199 238 199 3 0 50 -45 104 -101 l97 -100 120 137 c66 75
139 158 162 183 31 34 39 49 31 59 -6 7 -51 44 -99 83 -49 39 -89 76 -89 82 0
9 78 154 132 244 l19 32 112 -41 c177 -65 149 -84 246 170 46 121 81 224 78
229 -4 6 -63 34 -132 62 -69 29 -125 56 -125 60 0 3 4 22 9 41 5 19 19 80 31
135 33 155 18 141 167 149 70 4 131 10 135 14 3 4 2 72 -2 152 -5 80 -9 191
-9 248 -1 80 -4 104 -16 108 -8 3 -67 1 -132 -4 -65 -5 -121 -7 -125 -3 -4 4
-21 76 -37 161 -26 135 -28 156 -15 166 8 7 64 29 124 50 61 21 110 42 110 46
0 9 -178 449 -184 455 -2 2 -59 -17 -126 -42 -68 -25 -128 -45 -134 -45 -11 0
-186 270 -186 285 0 5 44 50 98 101 l97 94 -180 176 -179 176 -56 -63 c-30
-35 -68 -78 -85 -96 l-30 -33 -132 87 c-73 49 -133 93 -133 100 0 7 27 57 60
111 33 55 60 104 59 108 0 5 -50 33 -112 61 -62 29 -166 78 -232 109 -179 83
-159 82 -188 16 -14 -31 -38 -87 -52 -124 -15 -38 -33 -68 -40 -68 -14 0 -319
70 -323 75 -2 1 4 56 12 121 9 65 16 126 16 136 0 17 -18 18 -290 18 l-290 0
3 -132z m246 -360 c19 -48 38 -85 42 -82 5 3 6 -3 2 -12 -4 -12 -3 -15 5 -10
8 5 10 1 5 -10 -4 -12 -3 -15 5 -10 8 4 10 2 6 -7 -3 -8 6 -42 20 -76 14 -33
26 -65 26 -71 0 -5 -21 -10 -46 -10 -44 0 -46 1 -61 40 -17 43 -23 45 -105 34
-41 -6 -46 -10 -56 -42 -6 -19 -8 -40 -5 -46 4 -6 -1 -5 -10 3 -10 7 -30 11
-47 9 -17 -3 -33 -1 -35 3 -3 4 22 85 56 181 33 95 62 179 64 186 3 9 20 12
52 10 l47 -3 35 -87z m287 59 c2 -2 -2 -37 -10 -78 -23 -119 -36 -203 -32
-206 1 -2 29 -8 62 -13 108 -19 104 -17 104 -55 0 -18 -3 -36 -7 -38 -5 -3
-51 2 -103 11 -52 8 -115 15 -140 15 -25 0 -38 2 -30 6 10 4 15 20 16 46 0 38
39 284 50 314 3 10 16 12 45 8 22 -3 43 -7 45 -10z m-609 -109 c45 -231 47
-249 32 -259 -13 -8 -79 -13 -79 -5 0 2 -11 61 -24 132 -13 71 -27 152 -31
181 l-7 52 39 4 c21 2 40 4 43 5 3 1 15 -49 27 -110z m636 58 c4 -10 1 -13 -8
-9 -8 3 -12 9 -9 14 7 12 11 11 17 -5z m-880 -20 c18 -7 43 -25 55 -39 l24
-25 -38 -26 c-38 -25 -38 -25 -56 -6 -27 29 -79 26 -108 -5 -19 -20 -22 -31
-16 -66 8 -50 34 -109 48 -109 5 0 6 4 3 10 -3 6 1 7 10 3 12 -4 13 -8 4 -13
-8 -6 -6 -11 9 -19 42 -23 92 17 92 73 0 24 3 26 45 26 43 0 45 -1 45 -30 0
-38 -21 -90 -44 -110 -17 -13 -17 -14 1 -22 14 -7 12 -7 -6 -4 -14 3 -46 -2
-72 -10 -39 -13 -55 -14 -84 -4 -74 24 -125 91 -139 178 -10 68 2 110 45 153
55 55 121 71 182 45z m1311 -46 c8 0 19 -6 25 -14 9 -11 -1 -47 -47 -168 -32
-84 -62 -161 -65 -170 -5 -16 -9 -16 -46 -1 -23 9 -41 21 -41 27 0 6 30 88 67
182 57 144 70 169 81 158 7 -8 19 -14 26 -14z m-1364 -50 c0 -5 -7 -7 -15 -4
-8 4 -15 8 -15 10 0 2 7 4 15 4 8 0 15 -4 15 -10z m1535 -27 c19 -9 36 -23 36
-30 1 -7 3 -17 4 -23 1 -5 3 -56 4 -112 2 -99 2 -102 19 -81 9 11 34 53 55 92
l37 71 35 -17 c19 -9 35 -20 35 -23 0 -3 -38 -76 -85 -160 -47 -85 -86 -159
-88 -164 -6 -17 -68 16 -78 41 -5 13 -9 63 -9 111 0 48 -4 93 -8 100 -6 8 -23
-14 -53 -68 -24 -44 -48 -80 -52 -80 -15 0 -67 34 -67 43 0 5 15 35 33 66 19
31 58 100 88 153 30 54 55 98 56 98 1 0 18 -8 38 -17z m-1851 -45 c-2 -4 4 -9
13 -12 90 -29 154 -214 97 -277 -16 -17 -16 -22 -4 -30 13 -9 13 -9 0 -7 -8 1
-35 -11 -59 -27 -37 -25 -54 -30 -107 -30 -76 0 -105 18 -151 95 -44 72 -51
127 -24 182 23 47 85 97 135 108 39 8 105 7 100 -2z m670 -53 c-4 -8 -8 -15
-10 -15 -2 0 -4 7 -4 15 0 8 4 15 10 15 5 0 7 -7 4 -15z m966 -154 c0 -6 -4
-13 -10 -16 -5 -3 -10 1 -10 9 0 9 5 16 10 16 6 0 10 -4 10 -9z m613 -5 c52
-22 98 -78 104 -125 6 -44 -11 -91 -32 -91 -24 0 -60 51 -57 79 5 46 -67 93
-76 50 -3 -18 49 -100 60 -93 4 3 5 -1 2 -9 -3 -8 -1 -18 5 -22 6 -3 11 -27
11 -52 0 -39 -5 -50 -36 -79 -61 -58 -133 -44 -213 43 -41 44 -40 174 2 173 7
0 24 -12 40 -25 21 -19 26 -30 21 -49 -9 -37 4 -64 37 -82 24 -12 34 -13 45
-3 21 17 18 26 -27 96 -46 70 -53 115 -25 157 29 45 81 57 139 32z m-2590 -48
c24 -3 21 -13 -16 -51 -27 -28 -38 -33 -64 -30 -33 5 -73 -23 -73 -52 0 -22
23 -19 93 15 82 39 117 39 161 -1 37 -32 53 -80 41 -119 -10 -30 -72 -98 -106
-116 -37 -18 -83 -18 -125 2 -40 19 -42 33 -11 62 20 19 31 21 69 16 41 -6 47
-4 66 21 26 32 27 48 8 64 -11 9 -30 4 -88 -24 -88 -41 -101 -42 -145 -12 -78
52 -59 155 42 219 29 18 48 19 148 6z m-108 -118 c-3 -5 -12 -10 -18 -10 -7 0
-6 4 3 10 19 12 23 12 15 0z m1655 -35 c428 -92 797 -375 985 -755 111 -224
150 -387 149 -630 -1 -264 -39 -429 -149 -645 -177 -350 -503 -624 -867 -729
-180 -51 -460 -65 -653 -32 -464 79 -889 426 -1065 868 -89 226 -122 508 -86
743 35 223 138 468 270 640 222 291 556 492 911 550 116 19 398 13 505 -10z
m1120 -46 c0 -4 -7 -6 -15 -3 -8 4 -15 10 -15 15 0 4 7 6 15 3 8 -4 15 -10 15
-15z m185 -6 c13 -16 25 -31 25 -34 0 -3 -34 -34 -75 -69 -41 -34 -73 -66 -70
-70 3 -4 -2 -7 -11 -6 -9 0 -25 -11 -36 -25 -26 -35 -14 -80 25 -93 30 -11 56
0 103 42 16 15 50 43 74 62 25 19 47 38 48 42 10 23 72 -22 72 -51 0 -16 -72
-78 -177 -153 -88 -65 -162 -48 -224 50 -49 78 -35 134 51 197 28 20 47 42 43
47 -3 6 -2 8 4 5 5 -3 32 14 59 38 27 24 53 44 57 45 4 0 19 -12 32 -27z
m-2805 -13 c0 -5 -5 -10 -11 -10 -5 0 -7 5 -4 10 3 6 8 10 11 10 2 0 4 -4 4
-10z m2430 -4 c-7 -7 -13 -7 -20 0 -6 6 -3 10 10 10 13 0 16 -4 10 -10z
m-3320 -256 c0 -5 -7 -7 -15 -4 -8 4 -15 8 -15 10 0 2 7 4 15 4 8 0 15 -4 15
-10z m512 -16 c88 -14 168 -24 178 -21 22 6 21 -9 -5 -57 -18 -33 -22 -35 -65
-33 -37 2 -45 -1 -44 -15 1 -10 -2 -16 -7 -15 -5 1 -19 -15 -31 -35 l-22 -38
27 -28 c33 -34 33 -49 1 -87 l-25 -30 -22 26 c-29 34 -39 47 -122 154 -38 50
-77 98 -87 109 -16 18 -16 21 5 57 13 22 30 39 40 39 10 0 90 -12 179 -26z
m3422 -20 c9 -3 13 -10 10 -15 -8 -14 -21 -11 -28 6 -6 17 -4 18 18 9z m16
-46 c0 -7 16 -44 35 -83 58 -117 59 -181 2 -215 -39 -24 -89 -26 -122 -4 -15
10 -25 12 -25 5 0 -6 -16 -36 -36 -67 -20 -31 -32 -59 -27 -64 4 -4 87 -17
183 -29 105 -13 177 -26 182 -34 4 -6 8 -28 8 -47 0 -30 -7 -39 -43 -65 -130
-90 -216 -159 -210 -168 4 -6 1 -7 -6 -3 -7 5 -21 0 -31 -9 -22 -20 -36 -14
-43 17 -2 13 -8 30 -11 39 -5 12 3 23 30 39 34 22 36 25 31 65 -11 80 -22 95
-66 95 -36 0 -40 3 -46 33 -4 17 -18 53 -31 79 -13 26 -24 52 -24 57 0 6 15
34 34 63 18 29 36 63 40 76 10 31 -1 62 -20 55 -13 -5 -13 -8 -2 -15 10 -7 9
-8 -4 -4 -10 3 -39 -4 -64 -14 -25 -11 -47 -20 -50 -20 -2 0 -12 17 -23 38
l-20 39 42 18 c23 10 96 45 162 76 122 59 155 69 155 47z m-3537 -258 c64 -25
117 -49 117 -53 0 -4 -7 -24 -15 -43 -12 -30 -18 -34 -37 -28 -70 22 -328 127
-328 134 0 4 7 24 15 43 l15 36 58 -22 c32 -12 110 -42 175 -67z m177 -110 c0
-5 -4 -10 -10 -10 -5 0 -10 5 -10 10 0 6 5 10 10 10 6 0 10 -4 10 -10z m-349
-17 c16 -10 34 -32 41 -49 l11 -31 80 29 c43 15 84 28 89 28 13 0 0 -81 -15
-96 -7 -6 -41 -21 -77 -34 -59 -20 -100 -49 -100 -70 0 -4 32 -16 71 -25 l71
-18 -7 -36 c-4 -20 -10 -40 -14 -44 -8 -8 -327 68 -351 83 -11 7 20 146 49
222 20 53 97 73 152 41z m-184 -63 c-1 -11 -5 -20 -9 -20 -10 0 -10 4 -2 24 8
22 13 20 11 -4z m3671 -21 c-3 -8 -7 -3 -11 10 -4 17 -3 21 5 13 5 -5 8 -16 6
-23z m-3398 -133 c0 -3 -4 -8 -10 -11 -5 -3 -10 -1 -10 4 0 6 5 11 10 11 6 0
10 -2 10 -4z m353 -41 c-3 -9 -8 -14 -10 -11 -3 3 -2 9 2 15 9 16 15 13 8 -4z
m3117 -5 c0 -5 -4 -10 -10 -10 -5 0 -10 5 -10 10 0 6 5 10 10 10 6 0 10 -4 10
-10z m-3570 -130 c0 -5 -2 -10 -4 -10 -3 0 -8 5 -11 10 -3 6 -1 10 4 10 6 0
11 -4 11 -10z m-148 -97 c3 -97 3 -98 28 -98 25 0 25 2 28 88 l3 87 42 0 43 0
-4 -90 -4 -90 41 0 41 0 2 68 c4 141 -1 127 44 124 21 -2 39 -5 39 -5 0 -1 -1
-65 -3 -143 l-3 -141 -197 4 c-108 2 -198 6 -201 8 -2 3 1 5 7 5 8 0 12 18 12
48 0 27 3 90 6 140 l7 92 33 0 33 0 3 -97z m4118 18 c0 -38 -2 -40 -92 -101
-51 -35 -97 -67 -103 -73 -6 -6 28 -7 98 -3 l107 7 0 -45 0 -46 -62 0 c-35 0
-120 -3 -190 -7 l-128 -6 1 49 0 49 97 63 97 62 -100 -1 c-55 -1 -101 1 -102
5 -2 3 -3 22 -3 41 l0 34 68 4 c37 2 122 4 190 5 l122 2 0 -39z m-3847 -313
c57 -78 70 -162 38 -235 -49 -106 -218 -139 -308 -60 -45 40 -63 82 -63 148 0
60 25 108 67 130 15 8 32 18 36 24 5 6 7 3 3 -8 -3 -9 -1 -30 5 -45 18 -45 19
-61 4 -56 -7 3 -18 -4 -24 -15 -32 -58 16 -131 86 -131 79 0 139 54 128 114
-14 79 -67 98 -63 23 3 -40 2 -41 -33 -44 l-37 -4 -11 64 c-18 103 -18 103 42
114 91 18 104 16 130 -19z m3694 -44 c110 -37 158 -132 117 -232 -16 -43 -51
-77 -90 -92 -40 -16 -44 -13 -44 35 0 38 4 47 24 57 14 6 30 24 37 41 20 47
-3 78 -74 101 -82 27 -131 9 -143 -51 -5 -27 -1 -37 26 -64 l32 -32 -19 -34
c-9 -18 -22 -33 -28 -33 -15 0 -70 50 -84 77 -27 52 -6 144 42 191 54 53 120
64 204 36z m-3887 -4 c0 -5 -5 -10 -11 -10 -5 0 -7 5 -4 10 3 6 8 10 11 10 2
0 4 -4 4 -10z m3880 -121 c0 -5 -4 -9 -10 -9 -5 0 -10 7 -10 16 0 8 5 12 10 9
6 -3 10 -10 10 -16z m-3890 -35 c0 -8 -4 -12 -10 -9 -5 3 -10 10 -10 16 0 5 5
9 10 9 6 0 10 -7 10 -16z m140 2 c0 -3 -4 -8 -10 -11 -5 -3 -10 -1 -10 4 0 6
5 11 10 11 6 0 10 -2 10 -4z m155 -106 c-3 -5 -12 -10 -18 -10 -7 0 -6 4 3 10
19 12 23 12 15 0z m16 -70 c7 -22 10 -43 7 -46 -8 -8 -326 -114 -341 -114 -7
0 -18 18 -24 40 -13 50 -22 45 172 105 82 25 152 48 154 51 12 11 21 1 32 -36z
m16 8 c-3 -7 -5 -2 -5 12 0 14 2 19 5 13 2 -7 2 -19 0 -25z m3423 -55 c63 -24
134 -51 158 -60 23 -8 42 -18 42 -22 0 -4 -20 -60 -45 -125 -25 -66 -45 -121
-45 -123 0 -6 -70 4 -77 10 -3 3 11 47 30 96 l36 91 -24 6 c-32 8 -41 0 -55
-44 -10 -30 -38 -98 -45 -110 -1 -1 -16 3 -33 9 -39 13 -39 24 -5 112 26 67
27 70 8 83 -38 28 -51 18 -85 -71 -18 -47 -37 -88 -41 -91 -5 -3 -22 2 -40 11
-22 12 -29 21 -24 33 8 19 83 219 90 241 3 8 12 10 23 6 9 -4 69 -27 132 -52z
m-3397 -76 c12 -12 19 -32 20 -52 0 -5 -26 -52 -58 -103 -31 -51 -56 -95 -53
-97 8 -8 98 41 91 50 -5 4 -3 5 4 1 7 -4 26 0 42 9 41 21 45 20 62 -19 l16
-35 -163 -80 c-89 -45 -166 -81 -171 -81 -4 1 -15 16 -24 35 -16 35 -16 36 15
88 18 28 45 71 60 95 16 23 26 45 24 48 -3 3 -45 -15 -92 -40 l-86 -45 -20 39
-21 40 163 80 c89 44 166 80 171 80 5 0 14 -6 20 -13z m34 -119 c-3 -8 -6 -5
-6 6 -1 11 2 17 5 13 3 -3 4 -12 1 -19z m-217 -81 c0 -7 -4 -6 -10 3 -8 12
-10 12 -10 1 0 -8 -3 -12 -6 -8 -9 9 6 28 17 22 5 -4 9 -12 9 -18z m3000 3 c0
-5 -2 -10 -4 -10 -3 0 -8 5 -11 10 -3 6 -1 10 4 10 6 0 11 -4 11 -10z m-2406
-357 l114 -97 -21 -27 c-12 -15 -25 -28 -29 -28 -4 -1 -22 13 -40 29 -18 17
-35 30 -38 30 -6 0 -114 -125 -159 -183 -12 -15 -12 -17 5 -11 15 5 16 4 4 -4
-8 -6 -17 -9 -21 -6 -4 2 -10 0 -14 -6 -4 -7 -16 -4 -33 8 -15 11 -33 18 -40
16 -7 -1 -8 0 -2 3 5 2 8 9 4 14 -5 9 55 85 138 174 21 22 38 46 38 53 0 7
-16 26 -35 43 l-35 31 21 29 c11 16 22 29 25 29 2 0 56 -44 118 -97z m2515 8
c44 -23 98 -81 117 -127 32 -76 11 -132 -75 -204 -28 -23 -48 -47 -44 -53 3
-6 1 -7 -5 -3 -6 3 -17 -1 -25 -9 -14 -13 -29 1 -138 131 -103 122 -120 148
-106 155 9 6 14 17 11 27 -4 11 -3 13 3 5 6 -8 24 2 63 34 30 25 64 49 75 54
35 14 84 10 124 -10z m-2295 -177 c121 -75 141 -95 141 -144 0 -36 -6 -47 -38
-76 -25 -23 -47 -34 -67 -34 l-30 0 0 -100 0 -101 -22 21 c-12 11 -24 20 -27
20 -24 1 -34 26 -40 110 -8 85 -17 109 -43 110 -4 0 -23 -27 -43 -60 l-37 -60
-30 17 c-16 10 -33 23 -38 28 -5 6 28 67 77 145 93 147 104 168 83 155 -8 -5
-11 -4 -7 1 13 21 52 11 121 -32z m1963 -56 c70 -120 143 -255 143 -266 0 -7
-16 -20 -35 -29 -34 -16 -35 -16 -97 17 -35 18 -80 44 -100 57 -21 13 -40 23
-44 23 -3 0 15 -38 40 -84 25 -46 46 -88 46 -93 0 -11 -44 -33 -64 -33 -7 0
-43 56 -81 125 -37 69 -70 124 -72 122 -1 -2 11 -41 27 -88 36 -102 38 -156 8
-194 -28 -35 -98 -65 -155 -65 -38 0 -50 5 -79 34 -18 18 -35 31 -38 29 -2 -2
-3 2 -2 9 0 7 -10 50 -24 96 l-24 83 -41 -6 c-22 -4 -59 -11 -82 -17 -39 -9
-43 -13 -43 -40 l0 -30 58 6 c31 4 64 9 73 12 13 3 18 -4 23 -32 4 -20 5 -38
3 -41 -3 -2 -35 -9 -72 -15 -65 -11 -67 -12 -61 -38 3 -15 8 -50 12 -79 6 -49
6 -51 -17 -51 -13 0 -34 -3 -45 -6 -18 -5 -22 -1 -26 28 -3 18 -17 100 -32
181 -14 82 -24 153 -20 158 3 5 14 9 25 9 38 0 194 32 247 51 l53 19 10 -28
c6 -15 24 -67 41 -117 41 -124 51 -138 91 -130 49 11 60 26 52 74 -4 23 -11
41 -16 41 -6 0 -8 4 -5 9 4 5 -7 47 -24 94 -16 47 -30 87 -30 90 0 2 19 10 43
17 23 7 54 21 69 31 29 21 49 24 64 10 16 -15 177 -102 181 -97 2 2 -16 41
-41 86 -26 45 -46 84 -46 86 0 5 54 33 65 34 6 0 25 -24 42 -52z m-156 -53 c0
-5 -5 -11 -13 -13 -10 -3 -10 -1 1 6 11 8 10 11 -5 15 -16 5 -16 6 -1 4 10 -1
18 -6 18 -12z m-1547 -30 c20 -8 36 -17 36 -19 0 -2 -11 -28 -24 -57 -13 -30
-24 -57 -25 -61 -2 -11 -12 -38 -27 -77 -8 -18 -14 -44 -14 -57 0 -26 34 -54
66 -54 26 0 49 24 38 41 -4 7 -3 9 3 6 6 -4 26 35 48 96 48 127 49 129 83 115
47 -20 56 -32 42 -59 -13 -24 -13 -24 7 -6 47 42 137 42 202 0 18 -12 56 -15
182 -13 l159 1 0 -40 0 -40 -52 -3 -53 -3 -6 -145 c-4 -80 -7 -146 -8 -148 0
-2 -20 -2 -43 0 l-43 3 4 148 4 147 -43 0 c-26 0 -47 -6 -54 -15 -13 -17 -86
-10 -86 8 0 23 -34 47 -66 47 -64 0 -48 -28 39 -70 27 -12 60 -34 73 -49 22
-23 24 -34 22 -88 -1 -34 -5 -61 -8 -60 -3 1 -18 -7 -35 -18 -21 -15 -45 -20
-90 -19 -100 1 -165 51 -165 126 l0 39 43 -3 c37 -3 42 -6 45 -30 4 -32 17
-43 57 -52 36 -8 71 13 63 36 -4 8 -35 30 -70 48 -63 33 -84 53 -103 99 -10
23 -13 19 -39 -52 -36 -98 -67 -127 -137 -127 -58 0 -117 27 -149 67 -17 22
-21 38 -18 90 1 35 5 63 9 63 3 0 19 35 34 78 16 42 32 87 36 100 10 26 15 27
63 7z m136 -50 c0 -8 -5 -15 -11 -15 -5 0 -8 4 -4 9 3 5 -3 12 -12 14 -14 4
-13 5 5 6 13 1 22 -5 22 -14z m1835 -45 c3 -5 1 -10 -4 -10 -6 0 -11 5 -11 10
0 6 2 10 4 10 3 0 8 -4 11 -10z m-2857 -125 c-3 -3 -9 2 -12 12 -6 14 -5 15 5
6 7 -7 10 -15 7 -18z m1218 16 c-4 -5 -1 -12 4 -14 6 -3 5 -4 -2 -3 -15 3 -23
26 -8 26 6 0 9 -4 6 -9z m224 -41 c0 -5 -5 -10 -11 -10 -5 0 -7 5 -4 10 3 6 8
10 11 10 2 0 4 -4 4 -10z m327 -32 c-3 -7 -5 -2 -5 12 0 14 2 19 5 13 2 -7 2
-19 0 -25z m500 15 c-4 -3 -2 -12 4 -20 7 -8 8 -13 1 -13 -12 0 -23 26 -15 34
4 3 9 6 11 6 3 0 2 -3 -1 -7z m-47 -63 c0 -5 -2 -10 -4 -10 -3 0 -8 5 -11 10
-3 6 -1 10 4 10 6 0 11 -4 11 -10z m-1045 -10 c3 -5 1 -10 -4 -10 -6 0 -11 5
-11 10 0 6 2 10 4 10 3 0 8 -4 11 -10z"/>
<path d="M2422 4422 c-16 -53 -16 -52 19 -52 27 0 30 3 23 23 -3 12 -12 32
-18 45 -12 23 -13 23 -24 -16z"/>
<path d="M1463 4222 c-45 -35 -49 -84 -10 -150 23 -38 45 -52 85 -52 47 0 82
34 82 81 0 100 -93 172 -157 121z m147 -114 c0 -16 -3 -19 -11 -11 -6 6 -8 16
-5 22 11 17 16 13 16 -11z"/>
<path d="M3425 3395 c-25 -12 -26 -14 -5 -9 14 4 30 9 37 11 6 3 22 -15 34
-38 24 -47 84 -132 134 -188 17 -20 41 -53 53 -74 l22 -38 -28 -42 c-36 -53
-44 -67 -39 -67 2 0 21 25 41 55 l38 54 -23 38 c-12 21 -43 63 -69 93 -52 60
-126 170 -135 201 -7 22 -19 23 -60 4z"/>
<path d="M3153 3327 c-32 -30 -68 -59 -80 -65 -37 -20 -118 -13 -215 18 -88
29 -200 41 -211 23 -3 -5 20 -7 51 -5 43 3 81 -4 153 -27 99 -32 176 -39 224
-21 14 5 50 34 79 64 51 53 56 55 112 59 l59 3 -57 2 c-56 2 -58 1 -115 -51z"/>
<path d="M3350 3370 c-21 -7 -21 -8 -5 -9 11 0 27 4 35 9 18 11 5 11 -30 0z"/>
<path d="M1730 3341 c37 -4 83 -16 107 -29 23 -12 51 -22 61 -22 22 0 102 -59
102 -76 0 -6 8 -18 18 -27 19 -18 132 -70 132 -61 0 2 -29 18 -65 34 -44 20
-68 37 -74 53 -11 29 -87 87 -113 87 -10 0 -41 11 -68 25 -38 19 -63 25 -107
23 l-58 -1 65 -6z"/>
<path d="M1558 3309 c-50 -18 -89 -37 -93 -46 -5 -15 -4 -15 12 -1 10 8 55 28
101 43 45 14 82 29 82 31 0 7 -11 4 -102 -27z"/>
<path d="M2540 3255 c-14 -8 -20 -14 -15 -14 6 0 21 6 35 14 14 8 21 14 15 14
-5 0 -21 -6 -35 -14z"/>
<path d="M1429 3193 c-13 -26 -39 -64 -56 -86 -18 -21 -33 -44 -33 -50 0 -7 9
2 19 19 11 18 24 35 30 38 13 9 74 116 69 122 -3 2 -16 -17 -29 -43z"/>
<path d="M2460 3220 c-19 -11 -30 -19 -25 -19 6 0 26 8 45 19 19 11 31 19 25
19 -5 0 -26 -8 -45 -19z"/>
<path d="M2280 3200 c-19 -11 -46 -29 -60 -41 l-25 -21 25 16 c88 57 115 63
185 42 11 -4 7 0 -10 8 -40 20 -73 19 -115 -4z"/>
<path d="M2168 3133 c7 -3 16 -2 19 1 4 3 -2 6 -13 5 -11 0 -14 -3 -6 -6z"/>
<path d="M1323 2930 c0 -47 2 -66 4 -42 2 23 2 61 0 85 -2 23 -4 4 -4 -43z"/>
<path d="M2735 2975 c-29 -28 -31 -51 -9 -83 23 -33 54 -42 85 -26 45 23 53
80 17 114 -29 27 -64 25 -93 -5z"/>
<path d="M2309 2947 c-31 -24 -41 -55 -27 -84 19 -41 61 -52 96 -26 37 27 40
66 8 98 -27 27 -52 31 -77 12z"/>
<path d="M3581 2868 c-23 -40 -36 -66 -28 -58 17 17 81 130 74 130 -2 0 -23
-33 -46 -72z"/>
<path d="M3167 2809 c-19 -26 -10 -58 19 -71 29 -14 51 -5 66 27 23 50 -53 90
-85 44z"/>
<path d="M2637 2645 c-38 -96 -72 -177 -76 -180 -4 -2 -23 35 -41 83 -18 48
-46 122 -62 165 l-30 77 -83 0 -83 0 -15 -42 c-9 -24 -43 -112 -76 -197 -33
-85 -59 -156 -58 -157 2 -2 52 55 113 126 60 72 114 130 120 130 17 0 205
-223 200 -237 -3 -7 1 -10 9 -7 8 3 17 13 20 22 3 10 27 40 53 68 26 29 72 81
102 117 30 36 60 66 65 66 9 -1 156 -167 214 -243 l25 -32 84 98 c46 54 87 98
92 98 5 0 44 -40 87 -89 42 -50 79 -89 80 -87 3 3 -29 90 -73 197 l-36 87 -61
-2 -61 -1 -54 -138 c-30 -76 -58 -135 -62 -130 -4 4 -19 40 -33 78 -14 39 -46
122 -71 185 l-44 115 -89 3 -88 2 -68 -175z"/>
<path d="M1878 2799 c-21 -12 -24 -59 -6 -77 20 -20 56 -14 74 13 15 23 15 27
0 50 -17 26 -40 31 -68 14z"/>
<path d="M1330 2784 c0 -6 7 -19 16 -30 14 -18 14 -18 3 6 -14 31 -19 36 -19
24z"/>
<path d="M3533 2730 c0 -36 2 -50 4 -32 2 17 2 47 0 65 -2 17 -4 3 -4 -33z"/>
<path d="M1389 2673 c10 -21 29 -47 41 -58 12 -11 49 -51 82 -88 55 -61 61
-74 68 -125 7 -56 7 -57 9 -12 1 59 -15 88 -102 177 -39 41 -80 90 -90 109 -9
19 -20 34 -22 34 -3 0 3 -17 14 -37z"/>
<path d="M1808 2588 c-20 -51 -46 -118 -57 -148 l-22 -55 43 46 c24 25 64 70
90 100 l47 54 28 -30 c30 -33 110 -128 130 -154 7 -9 13 -13 13 -10 0 7 -71
198 -94 252 l-16 37 -63 0 -64 0 -35 -92z"/>
<path d="M3502 2615 c-7 -14 -12 -34 -12 -43 1 -9 7 1 15 23 16 45 14 58 -3
20z"/>
<path d="M3481 2534 c0 -11 3 -14 6 -6 3 7 2 16 -1 19 -3 4 -6 -2 -5 -13z"/>
<path d="M3451 2449 c-6 -18 -9 -34 -7 -36 2 -2 9 10 15 28 6 18 9 34 7 36 -2
2 -9 -10 -15 -28z"/>
<path d="M3426 2358 c-4 -24 -9 -54 -12 -68 -4 -18 -3 -21 4 -10 11 16 27 120
19 120 -2 0 -7 -19 -11 -42z"/>
<path d="M1571 2323 c0 -12 -4 -30 -7 -40 -5 -17 -5 -17 6 0 6 10 9 28 7 40
-4 22 -4 22 -6 0z"/>
<path d="M1530 2226 c-12 -20 -38 -50 -58 -67 -30 -24 -32 -28 -11 -19 27 12
106 107 96 116 -2 3 -15 -11 -27 -30z"/>
<path d="M3367 2181 c-4 -17 -3 -21 5 -13 5 5 8 16 6 23 -3 8 -7 3 -11 -10z"/>
<path d="M3336 2107 c-9 -23 -16 -49 -16 -58 0 -8 -13 -30 -30 -49 -16 -19
-29 -39 -30 -44 -1 -28 70 86 83 132 19 69 16 78 -7 19z"/>
<path d="M1443 2070 c0 -25 2 -35 4 -22 2 12 2 32 0 45 -2 12 -4 2 -4 -23z"/>
<path d="M1453 1960 c-1 -25 3 -72 7 -105 6 -54 7 -56 7 -15 1 25 -3 72 -7
105 -6 54 -7 56 -7 15z"/>
<path d="M3065 1905 c-11 -12 -47 -51 -80 -86 -42 -45 -34 -38 27 20 86 83 86
84 130 78 23 -3 51 -3 61 1 10 4 -11 8 -50 9 -59 1 -71 -2 -88 -22z"/>
<path d="M1471 1748 c-1 -27 3 -48 7 -48 4 0 6 17 4 38 -5 58 -10 62 -11 10z"/>
<path d="M2921 1734 c0 -11 3 -14 6 -6 3 7 2 16 -1 19 -3 4 -6 -2 -5 -13z"/>
<path d="M2911 1694 c0 -11 3 -14 6 -6 3 7 2 16 -1 19 -3 4 -6 -2 -5 -13z"/>
<path d="M1543 1693 c15 -2 39 -2 55 0 15 2 2 4 -28 4 -30 0 -43 -2 -27 -4z"/>
<path d="M1668 1683 c17 -2 47 -2 65 0 17 2 3 4 -33 4 -36 0 -50 -2 -32 -4z"/>
<path d="M1828 1673 c17 -2 47 -2 65 0 17 2 3 4 -33 4 -36 0 -50 -2 -32 -4z"/>
<path d="M1971 1632 c44 -29 54 -38 164 -152 33 -34 74 -68 90 -76 17 -8 21
-9 10 -2 -11 7 -58 51 -106 99 -88 89 -172 159 -192 159 -6 0 9 -13 34 -28z"/>
<path d="M2912 1640 c0 -14 2 -19 5 -12 2 6 2 18 0 25 -3 6 -5 1 -5 -13z"/>
<path d="M2825 1510 c-66 -66 -109 -100 -159 -125 -65 -33 -74 -35 -170 -35
-71 0 -122 6 -170 20 -82 23 -80 14 2 -12 40 -12 90 -18 168 -18 105 0 115 2
171 31 40 21 93 64 159 130 54 54 96 99 94 99 -3 0 -46 -41 -95 -90z"/>
<path d="M810 3484 c0 -5 14 -22 30 -37 l29 -29 16 31 c13 26 13 31 2 31 -8 0
-29 3 -46 6 -17 4 -31 3 -31 -2z"/>
<path d="M4273 3385 c-18 -8 -33 -16 -33 -18 0 -3 12 -25 26 -51 16 -29 33
-46 44 -46 23 0 41 28 30 49 -4 9 -14 30 -21 48 -14 31 -15 31 -46 18z"/>
<path d="M4331 2948 c1 -7 4 -23 7 -35 l7 -23 43 29 43 28 -38 6 c-54 9 -63 9
-62 -5z"/>
<path d="M563 3025 c-13 -14 -38 -103 -32 -110 2 -2 17 -5 34 -7 27 -3 30 0
43 45 12 44 12 50 -4 68 -20 22 -25 23 -41 4z m27 -50 c0 -5 -5 -3 -10 5 -5 8
-10 20 -10 25 0 6 5 3 10 -5 5 -8 10 -19 10 -25z"/>
<path d="M3694 1188 c-16 -12 -31 -23 -33 -25 -9 -6 22 -32 32 -26 6 3 7 1 3
-6 -7 -11 89 -131 105 -131 4 0 21 12 38 26 38 31 41 69 9 110 -60 78 -101 92
-154 52z m16 -28 c0 -5 -8 -10 -17 -10 -15 0 -16 2 -3 10 19 12 20 12 20 0z
m130 -95 c7 -9 8 -15 2 -15 -5 0 -12 7 -16 15 -3 8 -4 15 -2 15 2 0 9 -7 16
-15z"/>
<path d="M1466 1011 c-17 -32 -15 -37 41 -65 43 -21 60 -20 68 4 8 26 -3 39
-54 68 l-40 23 -15 -30z m51 -7 c-3 -3 -12 -4 -19 -1 -8 3 -5 6 6 6 11 1 17
-2 13 -5z"/>
</g>
</svg>
